<?xml version="1.0" standalone="no"?>
<!DOCTYPE svg PUBLIC "-//W3C//DTD SVG 20010904//EN"
 "http://www.w3.org/TR/2001/REC-SVG-20010904/DTD/svg10.dtd">
<svg version="1.0" xmlns="http://www.w3.org/2000/svg"
 width="512.000000pt" height="512.000000pt" viewBox="0 0 512.000000 512.000000"
 preserveAspectRatio="xMidYMid meet">

<g transform="translate(0.000000,512.000000) scale(0.100000,-0.100000)"
fill="#000000" stroke="none">
<path d="M1921 5038 c-51 -25 -20 12 -736 -876 l-550 -682 -155 0 c-173 0
-223 -10 -302 -61 -95 -61 -164 -176 -174 -291 -6 -56 23 -210 245 -1333 139
-698 259 -1295 267 -1325 41 -144 147 -278 274 -344 134 -70 16 -66 1770 -66
1411 0 1589 2 1644 16 179 46 339 198 392 373 8 25 129 626 270 1336 253 1271
257 1291 247 1360 -20 139 -94 240 -222 303 l-76 37 -200 4 -200 3 -592 732
c-326 402 -607 746 -623 764 -48 50 -87 66 -160 66 -114 0 -185 -57 -210 -168
-13 -60 5 -133 48 -192 16 -21 243 -300 505 -619 l476 -580 -1326 -3 c-730 -1
-1328 0 -1330 2 -2 2 219 278 492 612 273 335 505 626 516 646 23 44 25 133 5
181 -17 43 -69 94 -113 112 -52 22 -130 19 -182 -7z m-166 -2639 c25 -7 58
-29 86 -58 29 -28 51 -61 58 -86 7 -27 11 -199 11 -516 l0 -477 -28 -53 c-70
-135 -238 -160 -346 -52 -66 66 -67 80 -64 615 3 468 3 473 25 515 52 96 154
141 258 112z m866 0 c50 -16 105 -61 132 -112 22 -41 22 -48 25 -515 3 -535 2
-549 -64 -615 -108 -108 -276 -83 -346 52 l-28 53 0 477 c0 311 4 490 11 515
14 50 83 123 134 141 49 17 86 18 136 4z m864 0 c54 -15 127 -91 144 -150 9
-33 11 -166 9 -524 l-3 -480 -27 -46 c-15 -25 -46 -59 -70 -75 -38 -26 -52
-29 -118 -29 -65 0 -80 4 -113 26 -47 33 -84 82 -97 129 -14 51 -13 939 1 996
15 57 80 130 134 149 49 17 88 18 140 4z"/>
</g>
</svg>
